<svg width="152" height="24" viewBox="0 0 152 24" fill="none" xmlns="http://www.w3.org/2000/svg">
<g clip-path="url(#clip0_3516_7)">
<path d="M7.24237 8.48394L22.163 0C22.163 0 20.7564 1.25044 20.8182 3.95719C20.8842 6.84182 22.163 7.91447 22.163 7.91447L20.4098 7.10724L6.68454 12.5369C6.68454 12.5369 6.3513 11.5934 6.34587 10.8822C6.3317 9.1278 7.24237 8.48394 7.24237 8.48394Z" fill="#029DD1"/>
<path d="M4.06818 14.0302L20.37 8.00427C20.37 8.00427 18.9634 9.25471 19.0252 11.9616C19.0912 14.8462 20.37 15.9187 20.37 15.9187L18.0925 15.0328L3.46062 17.9434C3.46062 17.9434 3.17685 17.0737 3.17151 16.4285C3.15759 14.674 4.06818 14.0302 4.06818 14.0302Z" fill="#0047BD"/>
<path d="M0.896674 18.917L18.0967 15.7989C18.0967 15.7989 16.6901 17.0493 16.7519 19.7561C16.8179 22.6407 18.0967 23.7134 18.0967 23.7134H1.0251C1.0251 23.7134 0.01514 23.0935 5.39705e-06 21.2252C-0.0139147 19.4707 0.896674 18.917 0.896674 18.917Z" fill="#4817A1"/>
<path d="M26.5051 14.738C26.5051 19.7583 30.2365 23.0491 34.8236 23.0491C37.5806 23.0491 39.7909 21.8963 41.3595 20.1427V14.1375H33.8491V16.6117H38.5788V19.1097C37.8658 19.7823 36.4398 20.5507 34.8236 20.5507C31.6864 20.5507 29.3572 18.1006 29.3572 14.7377C29.3572 11.3749 31.6863 8.94883 34.8236 8.94883C36.4556 8.94782 37.9873 9.74424 38.9353 11.0867L41.2169 9.78975C39.9335 7.94012 37.9133 6.45093 34.8236 6.45093C30.2365 6.45093 26.5051 9.71778 26.5051 14.738ZM43.4722 22.7368H45.9677V14.8341C46.4668 14.0174 47.8691 13.2968 48.9148 13.2968C49.178 13.2924 49.4409 13.3166 49.6991 13.3689V10.8708C48.2018 10.8708 46.8233 11.7354 45.9677 12.8405V11.1349H43.4722V22.7368ZM56.186 23.0251C59.8699 23.0251 62.1039 20.2627 62.1039 16.9239C62.1039 13.609 59.8698 10.8467 56.186 10.8467C52.5497 10.8467 50.2918 13.609 50.2918 16.9239C50.2918 20.2627 52.5497 23.0251 56.186 23.0251ZM56.186 20.7915C54.0707 20.7915 52.8824 18.9902 52.8824 16.9242C52.8824 14.8825 54.0707 13.0809 56.186 13.0809C58.325 13.0809 59.5133 14.8822 59.5133 16.9242C59.5133 18.9897 58.325 20.7915 56.186 20.7915ZM73.9141 22.7368H76.5285L80.0935 11.1349H77.5032L75.079 19.5662L72.3455 11.1349H70.1593L67.4261 19.5662L65.0019 11.1349H62.411L65.976 22.7368H68.5907L71.2526 14.2336L73.9141 22.7368ZM84.5591 23.0251C85.7237 23.0251 86.4604 22.7128 86.912 22.2804L86.3176 20.3825C86.1275 20.5987 85.676 20.7909 85.2006 20.7909C84.4876 20.7909 84.1074 20.2145 84.1074 19.4219V13.3448H86.4365V11.1349H84.1074V7.96471H81.6119V11.1354H79.7106V13.3453H81.6119V20.0466C81.6119 21.9682 82.634 23.0251 84.5591 23.0251ZM95.7515 22.7368H98.2479V14.5218C98.2479 12.1442 97.0117 10.8467 94.5394 10.8467C92.7337 10.8467 91.2365 11.8075 90.4753 12.72V6.71517H87.9798V22.7368H90.4753V14.642C91.0698 13.8494 92.1633 13.0806 93.4227 13.0806C94.8246 13.0806 95.7515 13.6331 95.7515 15.4346V22.7368ZM100.836 22.7368H108.846C111.816 22.7368 113.456 20.8872 113.456 18.4132C113.456 16.4435 112.077 14.738 110.39 14.4738C111.864 14.1616 113.147 12.8167 113.147 10.7987C113.147 8.54075 111.531 6.71517 108.632 6.71517H100.836V22.7368ZM103.617 13.3448V9.18929H108.061C109.487 9.18929 110.295 10.078 110.295 11.2788C110.295 12.4795 109.487 13.3444 108.061 13.3444H103.617V13.3448ZM103.617 20.2627V15.8189H108.18C109.773 15.8189 110.604 16.8276 110.604 18.0288C110.604 19.422 109.701 20.2624 108.18 20.2624H103.617V20.2627ZM120.632 23.0251C124.315 23.0251 126.55 20.2627 126.55 16.9239C126.55 13.609 124.315 10.8467 120.632 10.8467C116.995 10.8467 114.737 13.609 114.737 16.9239C114.737 20.2627 116.995 23.0251 120.632 23.0251ZM120.632 20.7915C118.517 20.7915 117.328 18.9902 117.328 16.9242C117.328 14.8825 118.517 13.0809 120.632 13.0809C122.771 13.0809 123.959 14.8822 123.959 16.9242C123.959 18.9897 122.771 20.7915 120.632 20.7915ZM133.535 23.0251C137.219 23.0251 139.453 20.2627 139.453 16.9239C139.453 13.609 137.219 10.8467 133.535 10.8467C129.899 10.8467 127.64 13.609 127.64 16.9239C127.64 20.2627 129.899 23.0251 133.535 23.0251ZM133.535 20.7915C131.419 20.7915 130.231 18.9902 130.231 16.9242C130.231 14.8825 131.419 13.0809 133.535 13.0809C135.674 13.0809 136.862 14.8822 136.862 16.9242C136.862 18.9897 135.674 20.7915 133.535 20.7915ZM148.863 22.7368H152L147.128 16.3954L151.905 11.1349H148.816L143.752 16.7317V6.71517H141.257V22.7368H143.752V19.6142L145.345 17.957L148.863 22.7368Z" fill="#029DD1"/>
</g>
<defs>
<clipPath id="clip0_3516_7">
<rect width="152" height="24" fill="white"/>
</clipPath>
</defs>
</svg>
