<svg width="152" height="24" viewBox="0 0 152 24" fill="none" xmlns="http://www.w3.org/2000/svg">
<g clip-path="url(#clip0_3517_2)">
<path d="M40.6365 9.34565V6.56565H27.5442V9.34565H32.4865V18.59H35.6941V9.34565H40.6365ZM48.0338 18.7742C52.0596 18.7742 54.269 16.6808 54.269 13.2309V6.56565H51.0614V12.9128C51.0614 14.8387 50.0794 15.9272 48.0338 15.9272C45.9881 15.9272 45.0061 14.8387 45.0061 12.9128V6.56565H41.7985V13.2309C41.7985 16.6808 44.0079 18.7742 48.0338 18.7742ZM59.1791 14.6042H62.3704L64.8907 18.59H68.573L65.7252 14.2525C67.3292 13.6664 68.311 12.3601 68.311 10.5849C68.311 8.00589 66.4291 6.56565 63.5651 6.56565H55.9714V18.59H59.1791V14.6042ZM59.1791 12.0084V9.31216H63.4013C64.5305 9.31216 65.1524 9.81458 65.1524 10.6687C65.1524 11.4725 64.5305 12.0084 63.4013 12.0084H59.1791ZM69.8034 18.59H78.1989C80.8174 18.59 82.3229 17.3172 82.3229 15.1903C82.3229 13.7668 81.4393 12.7955 80.3919 12.3601C81.112 12.0084 81.9956 11.1711 81.9956 9.84807C81.9956 7.72119 80.5228 6.56565 77.9208 6.56565H69.8034V18.59ZM72.8802 11.2716V9.22842H77.5935C78.4771 9.22842 78.9681 9.58012 78.9681 10.25C78.9681 10.9199 78.4771 11.2716 77.5935 11.2716H72.8802ZM72.8802 13.7334H77.8878C78.7553 13.7334 79.2299 14.1688 79.2299 14.8219C79.2299 15.4751 78.7553 15.9105 77.8878 15.9105H72.8802V13.7334ZM90.1654 6.36469C86.0579 6.36469 83.0957 8.99396 83.0957 12.5778C83.0957 16.1617 86.0579 18.791 90.1654 18.791C94.2732 18.791 97.219 16.1617 97.219 12.5778C97.219 8.99396 94.2732 6.36469 90.1654 6.36469ZM90.1654 9.21166C92.3258 9.21166 93.946 10.5179 93.946 12.5778C93.946 14.6377 92.3258 15.944 90.1654 15.944C88.0054 15.944 86.3852 14.6377 86.3852 12.5778C86.3852 10.5179 88.0054 9.21166 90.1654 9.21166ZM130.941 6.36469C134.214 6.36469 136.489 7.87192 137.389 10.3002L134.46 11.64C134.001 10.2333 132.807 9.21166 130.941 9.21166C128.846 9.21166 127.193 10.5179 127.193 12.5778C127.193 14.6377 128.846 15.944 130.941 15.944C132.807 15.944 134.001 14.9224 134.46 13.5157L137.389 14.8554C136.489 17.2837 134.214 18.791 130.941 18.791C126.85 18.791 123.92 16.1617 123.92 12.5778C123.92 8.99396 126.85 6.36469 130.941 6.36469ZM106.113 6.56565C108.977 6.56565 110.859 7.9724 110.859 10.6687C110.859 13.3482 108.977 14.7549 106.113 14.7549H101.842V18.59H98.634V6.56565H106.113ZM118.834 6.56565L124.595 18.59H121.076L120.013 16.3291H113.843L112.779 18.59H109.375L115.152 6.56565H118.834ZM116.952 9.78106L115.103 13.6999H118.785L116.952 9.78106ZM105.933 9.31216H101.842V12.0252H105.933C107.079 12.0252 107.701 11.506 107.701 10.6687C107.701 9.81458 107.079 9.31216 105.933 9.31216ZM141.755 6.56565H138.548V18.59H141.755V15.5923L143.85 13.6664L147.925 18.59H152L146.158 11.5563L151.591 6.56565H147.221L141.755 11.64V6.56565Z" fill="black"/>
<path d="M10.2104 0L3.68214 3.81762L3.6949 6.81765L10.2104 3.00787L17.8682 7.48636L20.4209 8.97919V5.97002L10.2104 0ZM9.06175 20.2022L2.55261 16.3963V7.49289L2.55005 7.49158L2.53601 4.48764L0 5.97002V9.9509V13.9318V17.9114L6.51553 21.7211L9.06175 20.2022ZM17.8682 16.3963V8.84075L20.4209 10.3336V13.9318V17.9114L10.2104 23.8827L7.66675 22.3951L10.2104 20.8774V20.8735L17.8682 16.3963Z" fill="url(#paint0_linear_3517_2)"/>
<path d="M3.70128 8.84601V15.7133L10.2104 19.5205V12.6519L3.70128 8.84601Z" fill="black"/>
<path d="M10.2104 4.3623L4.27945 7.8299L10.7899 11.6371L16.7196 8.16817L10.2104 4.3623Z" fill="black"/>
</g>
<defs>
<linearGradient id="paint0_linear_3517_2" x1="1021.05" y1="188.571" x2="1017" y2="2229.29" gradientUnits="userSpaceOnUse">
<stop stop-color="#0096FF"/>
<stop offset="1" stop-color="#FF1E56"/>
</linearGradient>
<clipPath id="clip0_3517_2">
<rect width="152" height="24" fill="white"/>
</clipPath>
</defs>
</svg>
