<svg width="152" height="32" viewBox="0 0 152 32" fill="none" xmlns="http://www.w3.org/2000/svg">
<g clip-path="url(#clip0_3517_9)">
<path d="M28.5463 8.99497C28.5477 10.3369 28.2428 11.6617 27.6533 12.8723C27.0638 14.083 26.2049 15.149 25.1399 15.9916L0.646974 2.3626C0.553436 2.31009 0.466718 2.24707 0.388282 2.17403C0.265513 2.05612 0.168077 1.91529 0.101333 1.76013C0.0345897 1.60451 0 1.43742 0 1.2689C0 0.932341 0.13641 0.609626 0.379026 0.371886C0.621641 0.133669 0.950974 0 1.29444 0H19.3712C21.8047 0 24.1383 0.947618 25.859 2.63471C27.5797 4.32133 28.5463 6.60945 28.5463 8.99497Z" fill="#18B4F4"/>
<path d="M28.5464 22.9877C28.5469 24.1692 28.3096 25.3393 27.8487 26.4306C27.3879 27.5224 26.7121 28.5144 25.8601 29.3499C25.008 30.1853 23.9961 30.8479 22.8829 31.3C21.7697 31.7526 20.5761 31.9851 19.3713 31.9851H1.29452C1.03826 31.9822 0.788829 31.9053 0.577393 31.7635C0.366444 31.6218 0.202265 31.4217 0.107265 31.1888C0.0117774 30.9558 -0.0111201 30.7004 0.0419825 30.4545C0.0945979 30.2092 0.22029 29.9843 0.40347 29.8086C0.476547 29.737 0.558393 29.6745 0.647059 29.6225L10.2864 24.259L25.1381 15.9935C26.2025 16.8361 27.0614 17.9016 27.6514 19.1118C28.2414 20.322 28.5469 21.6467 28.5464 22.9877Z" fill="#FD6B3C"/>
<path d="M25.1399 15.9916L10.2863 24.259L0.647465 29.6225C0.5549 29.6731 0.469157 29.7347 0.39267 29.8067C4.06795 26.1113 6.12288 21.1526 6.11849 15.9916C6.12531 10.8296 4.07088 5.86996 0.394618 2.17401C0.473054 2.24705 0.559772 2.31007 0.653798 2.36258L25.1399 15.9916Z" fill="#A97FF2"/>
<path d="M48.621 11.73C52.8556 11.73 55.2481 15.0459 55.2481 19.0627C55.2481 23.0789 52.8556 26.3696 48.621 26.3696C46.4204 26.3696 44.7377 25.5069 43.8077 24.0433L43.4238 26.0397H40.7745V6.76797H44.0537V13.8849C44.8517 12.69 46.4204 11.73 48.621 11.73ZM47.9604 23.5377C50.4352 23.5377 51.9752 21.5709 51.9752 19.0627C51.9752 16.5015 50.4352 14.5594 47.9604 14.5594C45.486 14.5594 43.9436 16.4972 43.9436 19.0627C43.9436 21.5728 45.4582 23.5377 47.9604 23.5377ZM66.7709 20.2767V12.0555H70.0432V20.1139C70.0432 23.7091 68.3673 26.3696 63.746 26.3696C59.1251 26.3696 57.4487 23.7005 57.4487 20.1139V12.0555H60.7216V20.2767C60.7216 22.4593 61.7656 23.5377 63.7416 23.5377C65.7181 23.5377 66.7709 22.4593 66.7709 20.2767ZM72.6623 7.74089C72.6516 7.45923 72.7003 7.17853 72.8056 6.91644C72.9108 6.65435 73.0701 6.41614 73.2737 6.21754C73.4774 6.01895 73.721 5.8638 73.9889 5.76163C74.2569 5.65995 74.5438 5.61364 74.8308 5.62606C76.0736 5.62606 76.9685 6.5035 76.9685 7.75139C76.9685 8.99929 76.0736 9.81801 74.8308 9.81801C73.588 9.81801 72.6623 8.95728 72.6623 7.74089ZM131.05 7.74089C131.039 7.46019 131.087 7.18044 131.192 6.91883C131.296 6.65769 131.455 6.41995 131.657 6.22184C131.86 6.02324 132.102 5.86762 132.369 5.76498C132.636 5.66282 132.921 5.61508 133.207 5.62606C134.45 5.62606 135.345 6.5035 135.345 7.75139C135.345 8.99929 134.45 9.81801 133.207 9.81801C131.964 9.81801 131.05 8.95728 131.05 7.74089ZM126.91 21.9771C128.153 21.9771 129.048 22.8546 129.048 24.092C129.048 25.3293 128.153 26.1605 126.91 26.1605C125.667 26.1605 124.753 25.3102 124.753 24.092C124.741 23.8112 124.789 23.5315 124.894 23.2699C124.998 23.0083 125.157 22.7705 125.359 22.5719C125.562 22.3733 125.804 22.2177 126.071 22.1156C126.338 22.0129 126.623 21.9661 126.91 21.9771ZM125.792 11.92L126.258 11.9476V14.9385C126.012 14.9046 125.764 14.8865 125.516 14.8831C123.206 14.8831 121.831 16.0699 121.831 18.7662V26.0464H118.559V12.0555H121.201L121.583 13.9952C122.105 13.1067 123.309 11.92 125.792 11.92ZM73.1802 12.0536H76.4531V26.0464H73.1802V12.0536ZM79.7259 26.0464V6.76797H82.9983V26.0507L79.7259 26.0464ZM96.5015 6.76797H99.7743V26.0507H97.1314L96.7475 24.0538C95.8413 25.5112 94.1586 26.3806 91.9366 26.3806C87.7274 26.3806 85.3348 23.0641 85.3348 19.0732C85.3348 15.0822 87.7274 11.7405 91.9366 11.7405C94.163 11.7405 95.7035 12.7091 96.5015 13.8954V6.76797ZM92.6182 14.5637C90.1438 14.5637 88.6033 16.5053 88.6033 19.067C88.6033 21.5752 90.1438 23.542 92.6182 23.542C95.0926 23.542 96.633 21.5752 96.633 19.067C96.6374 16.4972 95.1252 14.5594 92.6226 14.5594L92.6182 14.5637ZM115.752 22.2182C114.736 24.7245 112.369 26.3696 109.262 26.3696C104.948 26.3696 102.143 23.214 102.143 19.035C102.143 14.9638 105.004 11.73 109.239 11.73C113.474 11.73 116.252 14.8831 116.252 18.982C116.266 19.3166 116.236 19.6513 116.164 19.9783H105.357C105.603 22.1905 107.062 23.6184 109.345 23.6184C110.913 23.6184 112.205 22.8631 112.809 21.463L115.752 22.2182ZM105.412 17.6076H113.003C112.727 15.666 111.353 14.3441 109.234 14.3441C107.116 14.3441 105.742 15.6932 105.412 17.6076ZM131.568 12.0536H134.84V26.0464H131.568V12.0536ZM137.177 19.0627C137.177 15.1266 140.037 11.73 144.574 11.73C149.112 11.73 152 15.1266 152 19.0627C152 22.9987 149.142 26.3696 144.574 26.3696C140.007 26.3696 137.177 22.9987 137.177 19.0627ZM144.574 23.5377C146.969 23.5377 148.727 21.7589 148.727 19.0627C148.727 16.3659 146.969 14.5599 144.574 14.5599C142.179 14.5599 140.445 16.3382 140.445 19.0627C140.445 21.7866 142.21 23.5377 144.574 23.5377Z" fill="black"/>
</g>
<defs>
<clipPath id="clip0_3517_9">
<rect width="152" height="32" fill="white"/>
</clipPath>
</defs>
</svg>
