<svg width="152" height="33" viewBox="0 0 152 33" fill="none" xmlns="http://www.w3.org/2000/svg">
<path d="M47.824 14.9189C50.3262 15.3181 52.7849 17.0727 52.7449 19.6693C52.7449 21.2662 52.071 22.7424 50.8399 23.779C46.5129 27.2144 38.8531 25.1377 38.733 19.3506H42.703C42.8632 20.8268 44.0542 22.0244 45.6388 21.9842C47.3069 21.9842 48.7749 21.3065 48.7749 19.6693C48.7749 18.9112 48.3378 18.5119 47.6239 18.153C44.9649 17.0761 41.0349 17.1163 39.4069 14.4425C38.416 12.6477 39.21 10.2121 40.7947 8.93388C42.1058 7.85698 43.8106 7.4175 45.6388 7.4175C48.895 7.37724 52.3879 9.49414 52.3879 12.7651H48.3378C47.8207 10.93 45.2418 10.3697 43.6939 11.3695C42.8999 11.8895 42.5829 12.8456 43.3369 13.4461C44.5279 14.4023 46.3161 14.6807 47.824 14.9189ZM91.7648 11.7285C95.8916 11.6077 99.5047 15.5999 98.6306 19.8304H88.4686C89.4228 22.4639 92.8757 23.0242 94.5004 20.7899H98.3904C96.7624 25.6611 90.2935 26.9762 86.8005 23.4234C82.3167 18.9917 85.6896 11.6882 91.7648 11.7285ZM95.0576 17.3545C93.8666 14.2412 89.6596 14.2412 88.4686 17.3545H95.0576ZM115.859 7.4175H119.432V25.4564H115.859V7.4175ZM64.3348 11.7285V18.3912C64.1379 23.1416 57.6658 23.1416 57.509 18.3912V11.7251H53.9359V18.3912C53.9359 19.1091 54.056 19.827 54.2528 20.5081C55.167 23.4234 57.8659 25.4162 60.9219 25.4162C63.9778 25.4162 66.6767 23.42 67.5909 20.5081C67.7877 19.8304 67.9078 19.1124 67.9078 18.3912V11.7285H64.3348ZM114.271 18.5924C114.271 14.8015 111.175 11.7285 107.325 11.7285C103.475 11.7285 100.379 14.8015 100.379 18.5924C100.379 22.3834 103.471 25.4564 107.325 25.4564C108.556 25.4564 109.707 25.1377 110.698 24.5775V25.4564H114.271V18.5924ZM107.285 22.1452C105.26 22.1452 103.672 20.5483 103.672 18.5522C103.672 16.5963 105.3 14.9592 107.285 14.9592C109.31 14.9592 110.898 16.5561 110.898 18.5522C110.898 20.5483 109.266 22.1452 107.285 22.1452ZM76.4818 11.7285C73.4258 11.7285 70.7269 13.7246 69.8128 16.6366C69.6159 17.3142 69.4958 18.0322 69.4958 18.7535V25.4195H73.0689V18.7535C73.1489 16.3581 74.817 15.1604 76.4818 15.1604V11.7285ZM84.1016 11.7285C81.0456 11.7285 78.3467 13.7246 77.4326 16.6366C77.2357 17.3142 77.1156 18.0322 77.1156 18.7535V25.4195H80.6887V18.7535C80.7687 16.3581 82.4335 15.1604 84.1016 15.1604V11.7285Z" fill="black"/>
<path d="M131.378 8.09522C130.268 7.65573 129.036 7.41754 127.689 7.41754H121.02V25.4196H127.689C129.117 25.4196 130.388 25.1814 131.499 24.7419C134.911 23.4234 136.816 20.0317 136.776 16.3984C136.816 12.7651 134.791 9.41031 131.378 8.09522ZM132.966 16.4353C133.003 19.2702 130.661 21.8668 127.805 21.8265H124.549V11.0475H127.805C130.665 11.0072 133.007 13.6408 132.966 16.4353ZM149.634 15.7979C152.453 13.6441 150.945 8.89367 147.886 7.81341C147.212 7.53496 146.498 7.41418 145.744 7.41418H138.361V25.4162C138.798 25.4162 146.735 25.4162 146.735 25.4162C148.163 25.4162 149.514 24.8962 150.505 23.9401C152.733 21.7863 152.493 17.3948 149.634 15.7979ZM141.894 11.0475H145.624C146.578 11.0475 147.369 11.7251 147.332 12.7249C147.372 13.6844 146.578 14.4828 145.624 14.4426H141.894V11.0475ZM146.538 21.8265H141.934V17.9148H146.538C147.492 17.8746 148.286 18.9515 148.246 19.9109C148.286 20.8268 147.492 21.8668 146.538 21.8265Z" fill="url(#paint0_linear_3517_17)"/>
<path d="M14.0119 8.64876L21.7952 12.9832V11.2454L14.0119 6.92102C12.8543 7.56515 7.25951 10.6751 6.22863 11.2454C7.18611 11.7788 17.2413 17.3646 23.3532 20.7597V22.4908C22.5225 22.9538 14.0119 27.6807 14.0119 27.6807C11.6833 26.3891 6.99595 23.7858 4.67064 22.4908V17.3009L14.0119 22.4908L15.5699 21.6252L3.11265 14.7076V23.3597L14.0119 29.4118C15.0862 28.8147 24.1139 23.7992 24.9079 23.3563V19.8975L9.34128 11.2454L14.0119 8.64876ZM3.11265 9.5143V12.9765L18.6792 21.6286L14.0086 24.2252L6.2253 19.8908V21.6286L14.0086 25.953C15.1662 25.3089 20.761 22.1989 21.7919 21.6286C20.8344 21.0952 10.7825 15.5094 4.67064 12.1109V10.3799C5.50135 9.91688 14.0119 5.18993 14.0119 5.18993C16.3372 6.48489 21.0246 9.08824 23.3532 10.3799V15.5698L14.0119 10.3799L12.4539 11.2454L24.9079 18.1664V9.5143L14.0119 3.45883C12.9343 4.05935 3.90999 9.07482 3.11265 9.5143ZM14.0119 0L0 7.78657V25.0874L14.0119 32.874L28.0238 25.0908V7.78657L14.0119 0ZM26.4625 24.2219L14.0119 31.1429L1.55799 24.2219V8.65211L14.0119 1.73109L26.4659 8.65211L26.4625 24.2219Z" fill="url(#paint1_linear_3517_17)"/>
<defs>
<linearGradient id="paint0_linear_3517_17" x1="779.337" y1="479.409" x2="1514.19" y2="1745.13" gradientUnits="userSpaceOnUse">
<stop stop-color="#FF00A0"/>
<stop offset="1" stop-color="#9600FF"/>
</linearGradient>
<linearGradient id="paint1_linear_3517_17" x1="870.055" y1="384.79" x2="2231.27" y2="2729.37" gradientUnits="userSpaceOnUse">
<stop stop-color="#FF00A0"/>
<stop offset="1" stop-color="#9600FF"/>
</linearGradient>
</defs>
</svg>
